<mxfile host="Electron" agent="Mozilla/5.0 (Windows NT 10.0; Win64; x64) AppleWebKit/537.36 (KHTML, like Gecko) draw.io/26.1.1 Chrome/132.0.6834.210 Electron/34.3.3 Safari/537.36" version="26.1.1">
  <diagram name="Asynchronous Advanced FIFO Controller" id="Asynchronous-Advanced-FIFO-Controller">
    <mxGraphModel dx         = "0"
                  dy         = "0"
                  grid       = "1"
                  gridSize   = "10"
                  guides     = "1"
                  tooltips   = "1"
                  connect    = "1"
                  arrows     = "1"
                  fold       = "1"
                  page       = "1"
                  pageScale  = "1"
                  pageWidth  = "210"
                  pageHeight = "280"
                  math       = "0"
                  shadow     = "0">
      <root>
        <mxCell id="0"/>
        <mxCell id="1" parent="0"/>
        <mxCell id          = "2"
                parent      = "1"
                value       = ""
                vertex      = "1"
                connectable = "0"
                style       = "group;connectable=1;points=[[0,0,0,15,0],[0,0,0,25,0],[0,0,0,15,10],[1,0,0,-15,0],[1,0,0,-25,0],[1,0,0,-15,10],[0,0,0,0,30],[1,0,0,0,30],[0,0,0,0,40],[1,0,0,0,40],[0,0,0,0,50],[1,0,0,0,50],[0,0,0,0,60],[1,0,0,0,60],[0,0,0,0,70],[1,0,0,0,70],[0,0,0,0,80],[1,0,0,0,80],[0,0,0,0,90],[1,0,0,0,90],[0,0,0,0,100],[1,0,0,0,100],[0,0,0,0,110],[1,0,0,0,110],[0,0,0,0,120],[1,0,0,0,120],[0,0,0,0,130],[1,0,0,0,130],[0,0,0,0,140],[1,0,0,0,140],[0,0,0,0,150],[1,0,0,0,150],[0,0,0,0,160],[1,0,0,0,160],[0,0,0,0,170],[1,0,0,0,170],[0,0,0,0,180],[1,0,0,0,180],[0,0,0,0,190],[1,0,0,0,190],[1,0,0,0,200],[1,0,0,0,210],[1,0,0,0,220],[1,0,0,0,230],[1,0,0,0,240],[1,0,0,0,250],[1,0,0,0,260],[1,0,0,0,270],[0.5,0,0,0,0],[0.5,0,0,0,280]];">
          <mxGeometry width  = "210"
                      height = "280"
                      as     = "geometry"/>
        </mxCell>
        <mxCell id     = "box"
                parent = "2"
                value  = ""
                vertex = "1"
                style  = "rounded=1;arcSize=5;fillColor=none;strokeWidth=1;strokeColor=black;whiteSpace=wrap;html=1;connectable=0;">
          <mxGeometry x="15"
                      y="0"
                      width="180"
                      height="280"
                      as="geometry"/>
        </mxCell>
        <mxCell id     = "title"
                parent = "2"
                value  = "Asynchronous Advanced FIFO Controller"
                vertex = "1"
                style  = "text;html=1;align=center;verticalAlign=middle;whiteSpace=wrap;rounded=0;fontSize=8;fontStyle=1;fontColor=black;connectable=0;">
          <mxGeometry x      = "15"
                      y      = "7"
                      width  = "180"
                      height = "0"
                      as     = "geometry"/>
        </mxCell>
        <mxCell id     = "subtitle"
                parent = "2"
                value  = "asynchronous_advanced_fifo_controller"
                vertex = "1"
                style  = "text;html=1;align=center;verticalAlign=middle;whiteSpace=wrap;rounded=0;fontSize=6;fontStyle=0;fontColor=black;connectable=0;">
          <mxGeometry x      = "15"
                      y      = "16"
                      width  = "180"
                      height = "0"
                      as     = "geometry"/>
        </mxCell>
            <mxCell id     = "write_clock-label"
                    parent = "2"
                    value  = "write_clock"
                    vertex = "1"
                    style  = "text;html=1;align=left;verticalAlign=middle;whiteSpace=wrap;rounded=0;fontSize=6;fontStyle=0;fontColor=black;connectable=0;">
              <mxGeometry
                x      = "15"
                y      = "30"
                width  = "180"
                height = "0"
                as     = "geometry"/>
            </mxCell>
            <mxCell id     = "write_clock-arrow"
                    parent = "2"
                    value  = ""
                    edge   = "1"
                    style  = "html=1;rounded=1;strokeWidth=1;strokeColor=black;startFill=0;startSize=2;startArrow=none;endFill=1;endSize=2;endArrow=blockThin;sourcePerimeterSpacing=0;">
              <mxGeometry width    = "50"
                          height   = "50"
                          relative = "1"
                          as       = "geometry">
                <mxPoint x  = "0"
                         y  = "30"
                         as = "sourcePoint"/>
                <mxPoint x  = "15"
                         y  = "30"
                         as = "targetPoint"/>
              </mxGeometry>
            </mxCell>
            <mxCell id="read_clock-label"
                    parent="2"
                    value="read_clock"
                    vertex="1"
                    style="text;html=1;align=right;verticalAlign=middle;whiteSpace=wrap;rounded=0;fontSize=6;fontStyle=0;fontColor=black;connectable=0;">
              <mxGeometry
                x      = "15"
                y      = "30"
                width  = "180"
                height = "0"
                as     = "geometry"/>
            </mxCell>
            <mxCell id     = "read_clock-arrow"
                    parent = "2"
                    value  = ""
                    edge   = "1"
                    style  = "html=1;rounded=1;strokeWidth=1;strokeColor=black;startFill=0;startSize=2;startArrow=none;endFill=1;endSize=2;endArrow=blockThin;sourcePerimeterSpacing=0;">
              <mxGeometry width    = "50"
                          height   = "50"
                          relative = "1"
                          as       = "geometry">
                <mxPoint x  = "210"
                         y  = "30"
                         as = "sourcePoint"/>
                <mxPoint x  = "195"
                         y  = "30"
                         as = "targetPoint"/>
              </mxGeometry>
            </mxCell>
            <mxCell id     = "write_resetn-label"
                    parent = "2"
                    value  = "write_resetn"
                    vertex = "1"
                    style  = "text;html=1;align=left;verticalAlign=middle;whiteSpace=wrap;rounded=0;fontSize=6;fontStyle=0;fontColor=black;connectable=0;">
              <mxGeometry
                x      = "15"
                y      = "40"
                width  = "180"
                height = "0"
                as     = "geometry"/>
            </mxCell>
            <mxCell id     = "write_resetn-arrow"
                    parent = "2"
                    value  = ""
                    edge   = "1"
                    style  = "html=1;rounded=1;strokeWidth=1;strokeColor=black;startFill=0;startSize=2;startArrow=none;endFill=1;endSize=2;endArrow=blockThin;sourcePerimeterSpacing=0;">
              <mxGeometry width    = "50"
                          height   = "50"
                          relative = "1"
                          as       = "geometry">
                <mxPoint x  = "0"
                         y  = "40"
                         as = "sourcePoint"/>
                <mxPoint x  = "15"
                         y  = "40"
                         as = "targetPoint"/>
              </mxGeometry>
            </mxCell>
            <mxCell id="read_resetn-label"
                    parent="2"
                    value="read_resetn"
                    vertex="1"
                    style="text;html=1;align=right;verticalAlign=middle;whiteSpace=wrap;rounded=0;fontSize=6;fontStyle=0;fontColor=black;connectable=0;">
              <mxGeometry
                x      = "15"
                y      = "40"
                width  = "180"
                height = "0"
                as     = "geometry"/>
            </mxCell>
            <mxCell id     = "read_resetn-arrow"
                    parent = "2"
                    value  = ""
                    edge   = "1"
                    style  = "html=1;rounded=1;strokeWidth=1;strokeColor=black;startFill=0;startSize=2;startArrow=none;endFill=1;endSize=2;endArrow=blockThin;sourcePerimeterSpacing=0;">
              <mxGeometry width    = "50"
                          height   = "50"
                          relative = "1"
                          as       = "geometry">
                <mxPoint x  = "210"
                         y  = "40"
                         as = "sourcePoint"/>
                <mxPoint x  = "195"
                         y  = "40"
                         as = "targetPoint"/>
              </mxGeometry>
            </mxCell>
            <mxCell id     = "write_flush-label"
                    parent = "2"
                    value  = "write_flush"
                    vertex = "1"
                    style  = "text;html=1;align=left;verticalAlign=middle;whiteSpace=wrap;rounded=0;fontSize=6;fontStyle=0;fontColor=black;connectable=0;">
              <mxGeometry
                x      = "15"
                y      = "50"
                width  = "180"
                height = "0"
                as     = "geometry"/>
            </mxCell>
            <mxCell id     = "write_flush-arrow"
                    parent = "2"
                    value  = ""
                    edge   = "1"
                    style  = "html=1;rounded=1;strokeWidth=1;strokeColor=black;startFill=0;startSize=2;startArrow=none;endFill=1;endSize=2;endArrow=blockThin;sourcePerimeterSpacing=0;">
              <mxGeometry width    = "50"
                          height   = "50"
                          relative = "1"
                          as       = "geometry">
                <mxPoint x  = "0"
                         y  = "50"
                         as = "sourcePoint"/>
                <mxPoint x  = "15"
                         y  = "50"
                         as = "targetPoint"/>
              </mxGeometry>
            </mxCell>
            <mxCell id="read_flush-label"
                    parent="2"
                    value="read_flush"
                    vertex="1"
                    style="text;html=1;align=right;verticalAlign=middle;whiteSpace=wrap;rounded=0;fontSize=6;fontStyle=0;fontColor=black;connectable=0;">
              <mxGeometry
                x      = "15"
                y      = "50"
                width  = "180"
                height = "0"
                as     = "geometry"/>
            </mxCell>
            <mxCell id     = "read_flush-arrow"
                    parent = "2"
                    value  = ""
                    edge   = "1"
                    style  = "html=1;rounded=1;strokeWidth=1;strokeColor=black;startFill=0;startSize=2;startArrow=none;endFill=1;endSize=2;endArrow=blockThin;sourcePerimeterSpacing=0;">
              <mxGeometry width    = "50"
                          height   = "50"
                          relative = "1"
                          as       = "geometry">
                <mxPoint x  = "210"
                         y  = "50"
                         as = "sourcePoint"/>
                <mxPoint x  = "195"
                         y  = "50"
                         as = "targetPoint"/>
              </mxGeometry>
            </mxCell>
            <mxCell id     = "write_enable-label"
                    parent = "2"
                    value  = "write_enable"
                    vertex = "1"
                    style  = "text;html=1;align=left;verticalAlign=middle;whiteSpace=wrap;rounded=0;fontSize=6;fontStyle=0;fontColor=black;connectable=0;">
              <mxGeometry
                x      = "15"
                y      = "60"
                width  = "180"
                height = "0"
                as     = "geometry"/>
            </mxCell>
            <mxCell id     = "write_enable-arrow"
                    parent = "2"
                    value  = ""
                    edge   = "1"
                    style  = "html=1;rounded=1;strokeWidth=1;strokeColor=black;startFill=0;startSize=2;startArrow=none;endFill=1;endSize=2;endArrow=blockThin;sourcePerimeterSpacing=0;">
              <mxGeometry width    = "50"
                          height   = "50"
                          relative = "1"
                          as       = "geometry">
                <mxPoint x  = "0"
                         y  = "60"
                         as = "sourcePoint"/>
                <mxPoint x  = "15"
                         y  = "60"
                         as = "targetPoint"/>
              </mxGeometry>
            </mxCell>
            <mxCell id="read_enable-label"
                    parent="2"
                    value="read_enable"
                    vertex="1"
                    style="text;html=1;align=right;verticalAlign=middle;whiteSpace=wrap;rounded=0;fontSize=6;fontStyle=0;fontColor=black;connectable=0;">
              <mxGeometry
                x      = "15"
                y      = "60"
                width  = "180"
                height = "0"
                as     = "geometry"/>
            </mxCell>
            <mxCell id     = "read_enable-arrow"
                    parent = "2"
                    value  = ""
                    edge   = "1"
                    style  = "html=1;rounded=1;strokeWidth=1;strokeColor=black;startFill=0;startSize=2;startArrow=none;endFill=1;endSize=2;endArrow=blockThin;sourcePerimeterSpacing=0;">
              <mxGeometry width    = "50"
                          height   = "50"
                          relative = "1"
                          as       = "geometry">
                <mxPoint x  = "210"
                         y  = "60"
                         as = "sourcePoint"/>
                <mxPoint x  = "195"
                         y  = "60"
                         as = "targetPoint"/>
              </mxGeometry>
            </mxCell>
            <mxCell id     = "write_data-label"
                    parent = "2"
                    value  = "write_data"
                    vertex = "1"
                    style  = "text;html=1;align=left;verticalAlign=middle;whiteSpace=wrap;rounded=0;fontSize=6;fontStyle=0;fontColor=black;connectable=0;">
              <mxGeometry
                x      = "15"
                y      = "70"
                width  = "180"
                height = "0"
                as     = "geometry"/>
            </mxCell>
            <mxCell id     = "write_data-arrow"
                    parent = "2"
                    value  = ""
                    edge   = "1"
                    style  = "html=1;rounded=1;strokeWidth=1;strokeColor=black;startFill=0;startSize=2;startArrow=dash;endFill=1;endSize=2;endArrow=blockThin;sourcePerimeterSpacing=0;">
              <mxGeometry width    = "50"
                          height   = "50"
                          relative = "1"
                          as       = "geometry">
                <mxPoint x  = "0"
                         y  = "70"
                         as = "sourcePoint"/>
                <mxPoint x  = "15"
                         y  = "70"
                         as = "targetPoint"/>
              </mxGeometry>
            </mxCell>
            <mxCell id="read_data-label"
                    parent="2"
                    value="read_data"
                    vertex="1"
                    style="text;html=1;align=right;verticalAlign=middle;whiteSpace=wrap;rounded=0;fontSize=6;fontStyle=0;fontColor=black;connectable=0;">
              <mxGeometry
                x      = "15"
                y      = "70"
                width  = "180"
                height = "0"
                as     = "geometry"/>
            </mxCell>
            <mxCell id     = "read_data-arrow"
                    parent = "2"
                    value  = ""
                    edge   = "1"
                    style  = "html=1;rounded=1;strokeWidth=1;strokeColor=black;startFill=0;startSize=2;startArrow=dash;endFill=1;endSize=2;endArrow=none;sourcePerimeterSpacing=0;">
              <mxGeometry width    = "50"
                          height   = "50"
                          relative = "1"
                          as       = "geometry">
                <mxPoint x  = "210"
                         y  = "70"
                         as = "sourcePoint"/>
                <mxPoint x  = "195"
                         y  = "70"
                         as = "targetPoint"/>
              </mxGeometry>
            </mxCell>
            <mxCell id     = "write_miss-label"
                    parent = "2"
                    value  = "write_miss"
                    vertex = "1"
                    style  = "text;html=1;align=left;verticalAlign=middle;whiteSpace=wrap;rounded=0;fontSize=6;fontStyle=0;fontColor=black;connectable=0;">
              <mxGeometry
                x      = "15"
                y      = "80"
                width  = "180"
                height = "0"
                as     = "geometry"/>
            </mxCell>
            <mxCell id     = "write_miss-arrow"
                    parent = "2"
                    value  = ""
                    edge   = "1"
                    style  = "html=1;rounded=1;strokeWidth=1;strokeColor=black;startFill=0;startSize=2;startArrow=none;endFill=1;endSize=2;endArrow=none;sourcePerimeterSpacing=0;">
              <mxGeometry width    = "50"
                          height   = "50"
                          relative = "1"
                          as       = "geometry">
                <mxPoint x  = "0"
                         y  = "80"
                         as = "sourcePoint"/>
                <mxPoint x  = "15"
                         y  = "80"
                         as = "targetPoint"/>
              </mxGeometry>
            </mxCell>
            <mxCell id="read_error-label"
                    parent="2"
                    value="read_error"
                    vertex="1"
                    style="text;html=1;align=right;verticalAlign=middle;whiteSpace=wrap;rounded=0;fontSize=6;fontStyle=0;fontColor=black;connectable=0;">
              <mxGeometry
                x      = "15"
                y      = "80"
                width  = "180"
                height = "0"
                as     = "geometry"/>
            </mxCell>
            <mxCell id     = "read_error-arrow"
                    parent = "2"
                    value  = ""
                    edge   = "1"
                    style  = "html=1;rounded=1;strokeWidth=1;strokeColor=black;startFill=0;startSize=2;startArrow=none;endFill=1;endSize=2;endArrow=none;sourcePerimeterSpacing=0;">
              <mxGeometry width    = "50"
                          height   = "50"
                          relative = "1"
                          as       = "geometry">
                <mxPoint x  = "210"
                         y  = "80"
                         as = "sourcePoint"/>
                <mxPoint x  = "195"
                         y  = "80"
                         as = "targetPoint"/>
              </mxGeometry>
            </mxCell>
            <mxCell id     = "write_empty-label"
                    parent = "2"
                    value  = "write_empty"
                    vertex = "1"
                    style  = "text;html=1;align=left;verticalAlign=middle;whiteSpace=wrap;rounded=0;fontSize=6;fontStyle=0;fontColor=black;connectable=0;">
              <mxGeometry
                x      = "15"
                y      = "90"
                width  = "180"
                height = "0"
                as     = "geometry"/>
            </mxCell>
            <mxCell id     = "write_empty-arrow"
                    parent = "2"
                    value  = ""
                    edge   = "1"
                    style  = "html=1;rounded=1;strokeWidth=1;strokeColor=black;startFill=0;startSize=2;startArrow=none;endFill=1;endSize=2;endArrow=none;sourcePerimeterSpacing=0;">
              <mxGeometry width    = "50"
                          height   = "50"
                          relative = "1"
                          as       = "geometry">
                <mxPoint x  = "0"
                         y  = "90"
                         as = "sourcePoint"/>
                <mxPoint x  = "15"
                         y  = "90"
                         as = "targetPoint"/>
              </mxGeometry>
            </mxCell>
            <mxCell id="read_empty-label"
                    parent="2"
                    value="read_empty"
                    vertex="1"
                    style="text;html=1;align=right;verticalAlign=middle;whiteSpace=wrap;rounded=0;fontSize=6;fontStyle=0;fontColor=black;connectable=0;">
              <mxGeometry
                x      = "15"
                y      = "90"
                width  = "180"
                height = "0"
                as     = "geometry"/>
            </mxCell>
            <mxCell id     = "read_empty-arrow"
                    parent = "2"
                    value  = ""
                    edge   = "1"
                    style  = "html=1;rounded=1;strokeWidth=1;strokeColor=black;startFill=0;startSize=2;startArrow=none;endFill=1;endSize=2;endArrow=none;sourcePerimeterSpacing=0;">
              <mxGeometry width    = "50"
                          height   = "50"
                          relative = "1"
                          as       = "geometry">
                <mxPoint x  = "210"
                         y  = "90"
                         as = "sourcePoint"/>
                <mxPoint x  = "195"
                         y  = "90"
                         as = "targetPoint"/>
              </mxGeometry>
            </mxCell>
            <mxCell id     = "write_not_empty-label"
                    parent = "2"
                    value  = "write_not_empty"
                    vertex = "1"
                    style  = "text;html=1;align=left;verticalAlign=middle;whiteSpace=wrap;rounded=0;fontSize=6;fontStyle=0;fontColor=black;connectable=0;">
              <mxGeometry
                x      = "15"
                y      = "100"
                width  = "180"
                height = "0"
                as     = "geometry"/>
            </mxCell>
            <mxCell id     = "write_not_empty-arrow"
                    parent = "2"
                    value  = ""
                    edge   = "1"
                    style  = "html=1;rounded=1;strokeWidth=1;strokeColor=black;startFill=0;startSize=2;startArrow=none;endFill=1;endSize=2;endArrow=none;sourcePerimeterSpacing=0;">
              <mxGeometry width    = "50"
                          height   = "50"
                          relative = "1"
                          as       = "geometry">
                <mxPoint x  = "0"
                         y  = "100"
                         as = "sourcePoint"/>
                <mxPoint x  = "15"
                         y  = "100"
                         as = "targetPoint"/>
              </mxGeometry>
            </mxCell>
            <mxCell id="read_not_empty-label"
                    parent="2"
                    value="read_not_empty"
                    vertex="1"
                    style="text;html=1;align=right;verticalAlign=middle;whiteSpace=wrap;rounded=0;fontSize=6;fontStyle=0;fontColor=black;connectable=0;">
              <mxGeometry
                x      = "15"
                y      = "100"
                width  = "180"
                height = "0"
                as     = "geometry"/>
            </mxCell>
            <mxCell id     = "read_not_empty-arrow"
                    parent = "2"
                    value  = ""
                    edge   = "1"
                    style  = "html=1;rounded=1;strokeWidth=1;strokeColor=black;startFill=0;startSize=2;startArrow=none;endFill=1;endSize=2;endArrow=none;sourcePerimeterSpacing=0;">
              <mxGeometry width    = "50"
                          height   = "50"
                          relative = "1"
                          as       = "geometry">
                <mxPoint x  = "210"
                         y  = "100"
                         as = "sourcePoint"/>
                <mxPoint x  = "195"
                         y  = "100"
                         as = "targetPoint"/>
              </mxGeometry>
            </mxCell>
            <mxCell id     = "write_almost_empty-label"
                    parent = "2"
                    value  = "write_almost_empty"
                    vertex = "1"
                    style  = "text;html=1;align=left;verticalAlign=middle;whiteSpace=wrap;rounded=0;fontSize=6;fontStyle=0;fontColor=black;connectable=0;">
              <mxGeometry
                x      = "15"
                y      = "110"
                width  = "180"
                height = "0"
                as     = "geometry"/>
            </mxCell>
            <mxCell id     = "write_almost_empty-arrow"
                    parent = "2"
                    value  = ""
                    edge   = "1"
                    style  = "html=1;rounded=1;strokeWidth=1;strokeColor=black;startFill=0;startSize=2;startArrow=none;endFill=1;endSize=2;endArrow=none;sourcePerimeterSpacing=0;">
              <mxGeometry width    = "50"
                          height   = "50"
                          relative = "1"
                          as       = "geometry">
                <mxPoint x  = "0"
                         y  = "110"
                         as = "sourcePoint"/>
                <mxPoint x  = "15"
                         y  = "110"
                         as = "targetPoint"/>
              </mxGeometry>
            </mxCell>
            <mxCell id="read_almost_empty-label"
                    parent="2"
                    value="read_almost_empty"
                    vertex="1"
                    style="text;html=1;align=right;verticalAlign=middle;whiteSpace=wrap;rounded=0;fontSize=6;fontStyle=0;fontColor=black;connectable=0;">
              <mxGeometry
                x      = "15"
                y      = "110"
                width  = "180"
                height = "0"
                as     = "geometry"/>
            </mxCell>
            <mxCell id     = "read_almost_empty-arrow"
                    parent = "2"
                    value  = ""
                    edge   = "1"
                    style  = "html=1;rounded=1;strokeWidth=1;strokeColor=black;startFill=0;startSize=2;startArrow=none;endFill=1;endSize=2;endArrow=none;sourcePerimeterSpacing=0;">
              <mxGeometry width    = "50"
                          height   = "50"
                          relative = "1"
                          as       = "geometry">
                <mxPoint x  = "210"
                         y  = "110"
                         as = "sourcePoint"/>
                <mxPoint x  = "195"
                         y  = "110"
                         as = "targetPoint"/>
              </mxGeometry>
            </mxCell>
            <mxCell id     = "write_full-label"
                    parent = "2"
                    value  = "write_full"
                    vertex = "1"
                    style  = "text;html=1;align=left;verticalAlign=middle;whiteSpace=wrap;rounded=0;fontSize=6;fontStyle=0;fontColor=black;connectable=0;">
              <mxGeometry
                x      = "15"
                y      = "120"
                width  = "180"
                height = "0"
                as     = "geometry"/>
            </mxCell>
            <mxCell id     = "write_full-arrow"
                    parent = "2"
                    value  = ""
                    edge   = "1"
                    style  = "html=1;rounded=1;strokeWidth=1;strokeColor=black;startFill=0;startSize=2;startArrow=none;endFill=1;endSize=2;endArrow=none;sourcePerimeterSpacing=0;">
              <mxGeometry width    = "50"
                          height   = "50"
                          relative = "1"
                          as       = "geometry">
                <mxPoint x  = "0"
                         y  = "120"
                         as = "sourcePoint"/>
                <mxPoint x  = "15"
                         y  = "120"
                         as = "targetPoint"/>
              </mxGeometry>
            </mxCell>
            <mxCell id="read_full-label"
                    parent="2"
                    value="read_full"
                    vertex="1"
                    style="text;html=1;align=right;verticalAlign=middle;whiteSpace=wrap;rounded=0;fontSize=6;fontStyle=0;fontColor=black;connectable=0;">
              <mxGeometry
                x      = "15"
                y      = "120"
                width  = "180"
                height = "0"
                as     = "geometry"/>
            </mxCell>
            <mxCell id     = "read_full-arrow"
                    parent = "2"
                    value  = ""
                    edge   = "1"
                    style  = "html=1;rounded=1;strokeWidth=1;strokeColor=black;startFill=0;startSize=2;startArrow=none;endFill=1;endSize=2;endArrow=none;sourcePerimeterSpacing=0;">
              <mxGeometry width    = "50"
                          height   = "50"
                          relative = "1"
                          as       = "geometry">
                <mxPoint x  = "210"
                         y  = "120"
                         as = "sourcePoint"/>
                <mxPoint x  = "195"
                         y  = "120"
                         as = "targetPoint"/>
              </mxGeometry>
            </mxCell>
            <mxCell id     = "write_not_full-label"
                    parent = "2"
                    value  = "write_not_full"
                    vertex = "1"
                    style  = "text;html=1;align=left;verticalAlign=middle;whiteSpace=wrap;rounded=0;fontSize=6;fontStyle=0;fontColor=black;connectable=0;">
              <mxGeometry
                x      = "15"
                y      = "130"
                width  = "180"
                height = "0"
                as     = "geometry"/>
            </mxCell>
            <mxCell id     = "write_not_full-arrow"
                    parent = "2"
                    value  = ""
                    edge   = "1"
                    style  = "html=1;rounded=1;strokeWidth=1;strokeColor=black;startFill=0;startSize=2;startArrow=none;endFill=1;endSize=2;endArrow=none;sourcePerimeterSpacing=0;">
              <mxGeometry width    = "50"
                          height   = "50"
                          relative = "1"
                          as       = "geometry">
                <mxPoint x  = "0"
                         y  = "130"
                         as = "sourcePoint"/>
                <mxPoint x  = "15"
                         y  = "130"
                         as = "targetPoint"/>
              </mxGeometry>
            </mxCell>
            <mxCell id="read_not_full-label"
                    parent="2"
                    value="read_not_full"
                    vertex="1"
                    style="text;html=1;align=right;verticalAlign=middle;whiteSpace=wrap;rounded=0;fontSize=6;fontStyle=0;fontColor=black;connectable=0;">
              <mxGeometry
                x      = "15"
                y      = "130"
                width  = "180"
                height = "0"
                as     = "geometry"/>
            </mxCell>
            <mxCell id     = "read_not_full-arrow"
                    parent = "2"
                    value  = ""
                    edge   = "1"
                    style  = "html=1;rounded=1;strokeWidth=1;strokeColor=black;startFill=0;startSize=2;startArrow=none;endFill=1;endSize=2;endArrow=none;sourcePerimeterSpacing=0;">
              <mxGeometry width    = "50"
                          height   = "50"
                          relative = "1"
                          as       = "geometry">
                <mxPoint x  = "210"
                         y  = "130"
                         as = "sourcePoint"/>
                <mxPoint x  = "195"
                         y  = "130"
                         as = "targetPoint"/>
              </mxGeometry>
            </mxCell>
            <mxCell id     = "write_almost_full-label"
                    parent = "2"
                    value  = "write_almost_full"
                    vertex = "1"
                    style  = "text;html=1;align=left;verticalAlign=middle;whiteSpace=wrap;rounded=0;fontSize=6;fontStyle=0;fontColor=black;connectable=0;">
              <mxGeometry
                x      = "15"
                y      = "140"
                width  = "180"
                height = "0"
                as     = "geometry"/>
            </mxCell>
            <mxCell id     = "write_almost_full-arrow"
                    parent = "2"
                    value  = ""
                    edge   = "1"
                    style  = "html=1;rounded=1;strokeWidth=1;strokeColor=black;startFill=0;startSize=2;startArrow=none;endFill=1;endSize=2;endArrow=none;sourcePerimeterSpacing=0;">
              <mxGeometry width    = "50"
                          height   = "50"
                          relative = "1"
                          as       = "geometry">
                <mxPoint x  = "0"
                         y  = "140"
                         as = "sourcePoint"/>
                <mxPoint x  = "15"
                         y  = "140"
                         as = "targetPoint"/>
              </mxGeometry>
            </mxCell>
            <mxCell id="read_almost_full-label"
                    parent="2"
                    value="read_almost_full"
                    vertex="1"
                    style="text;html=1;align=right;verticalAlign=middle;whiteSpace=wrap;rounded=0;fontSize=6;fontStyle=0;fontColor=black;connectable=0;">
              <mxGeometry
                x      = "15"
                y      = "140"
                width  = "180"
                height = "0"
                as     = "geometry"/>
            </mxCell>
            <mxCell id     = "read_almost_full-arrow"
                    parent = "2"
                    value  = ""
                    edge   = "1"
                    style  = "html=1;rounded=1;strokeWidth=1;strokeColor=black;startFill=0;startSize=2;startArrow=none;endFill=1;endSize=2;endArrow=none;sourcePerimeterSpacing=0;">
              <mxGeometry width    = "50"
                          height   = "50"
                          relative = "1"
                          as       = "geometry">
                <mxPoint x  = "210"
                         y  = "140"
                         as = "sourcePoint"/>
                <mxPoint x  = "195"
                         y  = "140"
                         as = "targetPoint"/>
              </mxGeometry>
            </mxCell>
            <mxCell id     = "write_level-label"
                    parent = "2"
                    value  = "write_level"
                    vertex = "1"
                    style  = "text;html=1;align=left;verticalAlign=middle;whiteSpace=wrap;rounded=0;fontSize=6;fontStyle=0;fontColor=black;connectable=0;">
              <mxGeometry
                x      = "15"
                y      = "150"
                width  = "180"
                height = "0"
                as     = "geometry"/>
            </mxCell>
            <mxCell id     = "write_level-arrow"
                    parent = "2"
                    value  = ""
                    edge   = "1"
                    style  = "html=1;rounded=1;strokeWidth=1;strokeColor=black;startFill=0;startSize=2;startArrow=dash;endFill=1;endSize=2;endArrow=none;sourcePerimeterSpacing=0;">
              <mxGeometry width    = "50"
                          height   = "50"
                          relative = "1"
                          as       = "geometry">
                <mxPoint x  = "0"
                         y  = "150"
                         as = "sourcePoint"/>
                <mxPoint x  = "15"
                         y  = "150"
                         as = "targetPoint"/>
              </mxGeometry>
            </mxCell>
            <mxCell id="read_level-label"
                    parent="2"
                    value="read_level"
                    vertex="1"
                    style="text;html=1;align=right;verticalAlign=middle;whiteSpace=wrap;rounded=0;fontSize=6;fontStyle=0;fontColor=black;connectable=0;">
              <mxGeometry
                x      = "15"
                y      = "150"
                width  = "180"
                height = "0"
                as     = "geometry"/>
            </mxCell>
            <mxCell id     = "read_level-arrow"
                    parent = "2"
                    value  = ""
                    edge   = "1"
                    style  = "html=1;rounded=1;strokeWidth=1;strokeColor=black;startFill=0;startSize=2;startArrow=dash;endFill=1;endSize=2;endArrow=none;sourcePerimeterSpacing=0;">
              <mxGeometry width    = "50"
                          height   = "50"
                          relative = "1"
                          as       = "geometry">
                <mxPoint x  = "210"
                         y  = "150"
                         as = "sourcePoint"/>
                <mxPoint x  = "195"
                         y  = "150"
                         as = "targetPoint"/>
              </mxGeometry>
            </mxCell>
            <mxCell id     = "write_lower_threshold_level-label"
                    parent = "2"
                    value  = "write_lower_threshold_level"
                    vertex = "1"
                    style  = "text;html=1;align=left;verticalAlign=middle;whiteSpace=wrap;rounded=0;fontSize=6;fontStyle=0;fontColor=black;connectable=0;">
              <mxGeometry
                x      = "15"
                y      = "160"
                width  = "180"
                height = "0"
                as     = "geometry"/>
            </mxCell>
            <mxCell id     = "write_lower_threshold_level-arrow"
                    parent = "2"
                    value  = ""
                    edge   = "1"
                    style  = "html=1;rounded=1;strokeWidth=1;strokeColor=black;startFill=0;startSize=2;startArrow=dash;endFill=1;endSize=2;endArrow=blockThin;sourcePerimeterSpacing=0;">
              <mxGeometry width    = "50"
                          height   = "50"
                          relative = "1"
                          as       = "geometry">
                <mxPoint x  = "0"
                         y  = "160"
                         as = "sourcePoint"/>
                <mxPoint x  = "15"
                         y  = "160"
                         as = "targetPoint"/>
              </mxGeometry>
            </mxCell>
            <mxCell id="read_lower_threshold_level-label"
                    parent="2"
                    value="read_lower_threshold_level"
                    vertex="1"
                    style="text;html=1;align=right;verticalAlign=middle;whiteSpace=wrap;rounded=0;fontSize=6;fontStyle=0;fontColor=black;connectable=0;">
              <mxGeometry
                x      = "15"
                y      = "160"
                width  = "180"
                height = "0"
                as     = "geometry"/>
            </mxCell>
            <mxCell id     = "read_lower_threshold_level-arrow"
                    parent = "2"
                    value  = ""
                    edge   = "1"
                    style  = "html=1;rounded=1;strokeWidth=1;strokeColor=black;startFill=0;startSize=2;startArrow=dash;endFill=1;endSize=2;endArrow=blockThin;sourcePerimeterSpacing=0;">
              <mxGeometry width    = "50"
                          height   = "50"
                          relative = "1"
                          as       = "geometry">
                <mxPoint x  = "210"
                         y  = "160"
                         as = "sourcePoint"/>
                <mxPoint x  = "195"
                         y  = "160"
                         as = "targetPoint"/>
              </mxGeometry>
            </mxCell>
            <mxCell id     = "write_lower_threshold_status-label"
                    parent = "2"
                    value  = "write_lower_threshold_status"
                    vertex = "1"
                    style  = "text;html=1;align=left;verticalAlign=middle;whiteSpace=wrap;rounded=0;fontSize=6;fontStyle=0;fontColor=black;connectable=0;">
              <mxGeometry
                x      = "15"
                y      = "170"
                width  = "180"
                height = "0"
                as     = "geometry"/>
            </mxCell>
            <mxCell id     = "write_lower_threshold_status-arrow"
                    parent = "2"
                    value  = ""
                    edge   = "1"
                    style  = "html=1;rounded=1;strokeWidth=1;strokeColor=black;startFill=0;startSize=2;startArrow=none;endFill=1;endSize=2;endArrow=none;sourcePerimeterSpacing=0;">
              <mxGeometry width    = "50"
                          height   = "50"
                          relative = "1"
                          as       = "geometry">
                <mxPoint x  = "0"
                         y  = "170"
                         as = "sourcePoint"/>
                <mxPoint x  = "15"
                         y  = "170"
                         as = "targetPoint"/>
              </mxGeometry>
            </mxCell>
            <mxCell id="read_lower_threshold_status-label"
                    parent="2"
                    value="read_lower_threshold_status"
                    vertex="1"
                    style="text;html=1;align=right;verticalAlign=middle;whiteSpace=wrap;rounded=0;fontSize=6;fontStyle=0;fontColor=black;connectable=0;">
              <mxGeometry
                x      = "15"
                y      = "170"
                width  = "180"
                height = "0"
                as     = "geometry"/>
            </mxCell>
            <mxCell id     = "read_lower_threshold_status-arrow"
                    parent = "2"
                    value  = ""
                    edge   = "1"
                    style  = "html=1;rounded=1;strokeWidth=1;strokeColor=black;startFill=0;startSize=2;startArrow=none;endFill=1;endSize=2;endArrow=none;sourcePerimeterSpacing=0;">
              <mxGeometry width    = "50"
                          height   = "50"
                          relative = "1"
                          as       = "geometry">
                <mxPoint x  = "210"
                         y  = "170"
                         as = "sourcePoint"/>
                <mxPoint x  = "195"
                         y  = "170"
                         as = "targetPoint"/>
              </mxGeometry>
            </mxCell>
            <mxCell id     = "write_upper_threshold_level-label"
                    parent = "2"
                    value  = "write_upper_threshold_level"
                    vertex = "1"
                    style  = "text;html=1;align=left;verticalAlign=middle;whiteSpace=wrap;rounded=0;fontSize=6;fontStyle=0;fontColor=black;connectable=0;">
              <mxGeometry
                x      = "15"
                y      = "180"
                width  = "180"
                height = "0"
                as     = "geometry"/>
            </mxCell>
            <mxCell id     = "write_upper_threshold_level-arrow"
                    parent = "2"
                    value  = ""
                    edge   = "1"
                    style  = "html=1;rounded=1;strokeWidth=1;strokeColor=black;startFill=0;startSize=2;startArrow=dash;endFill=1;endSize=2;endArrow=blockThin;sourcePerimeterSpacing=0;">
              <mxGeometry width    = "50"
                          height   = "50"
                          relative = "1"
                          as       = "geometry">
                <mxPoint x  = "0"
                         y  = "180"
                         as = "sourcePoint"/>
                <mxPoint x  = "15"
                         y  = "180"
                         as = "targetPoint"/>
              </mxGeometry>
            </mxCell>
            <mxCell id="read_upper_threshold_level-label"
                    parent="2"
                    value="read_upper_threshold_level"
                    vertex="1"
                    style="text;html=1;align=right;verticalAlign=middle;whiteSpace=wrap;rounded=0;fontSize=6;fontStyle=0;fontColor=black;connectable=0;">
              <mxGeometry
                x      = "15"
                y      = "180"
                width  = "180"
                height = "0"
                as     = "geometry"/>
            </mxCell>
            <mxCell id     = "read_upper_threshold_level-arrow"
                    parent = "2"
                    value  = ""
                    edge   = "1"
                    style  = "html=1;rounded=1;strokeWidth=1;strokeColor=black;startFill=0;startSize=2;startArrow=dash;endFill=1;endSize=2;endArrow=blockThin;sourcePerimeterSpacing=0;">
              <mxGeometry width    = "50"
                          height   = "50"
                          relative = "1"
                          as       = "geometry">
                <mxPoint x  = "210"
                         y  = "180"
                         as = "sourcePoint"/>
                <mxPoint x  = "195"
                         y  = "180"
                         as = "targetPoint"/>
              </mxGeometry>
            </mxCell>
            <mxCell id     = "write_upper_threshold_status-label"
                    parent = "2"
                    value  = "write_upper_threshold_status"
                    vertex = "1"
                    style  = "text;html=1;align=left;verticalAlign=middle;whiteSpace=wrap;rounded=0;fontSize=6;fontStyle=0;fontColor=black;connectable=0;">
              <mxGeometry
                x      = "15"
                y      = "190"
                width  = "180"
                height = "0"
                as     = "geometry"/>
            </mxCell>
            <mxCell id     = "write_upper_threshold_status-arrow"
                    parent = "2"
                    value  = ""
                    edge   = "1"
                    style  = "html=1;rounded=1;strokeWidth=1;strokeColor=black;startFill=0;startSize=2;startArrow=none;endFill=1;endSize=2;endArrow=none;sourcePerimeterSpacing=0;">
              <mxGeometry width    = "50"
                          height   = "50"
                          relative = "1"
                          as       = "geometry">
                <mxPoint x  = "0"
                         y  = "190"
                         as = "sourcePoint"/>
                <mxPoint x  = "15"
                         y  = "190"
                         as = "targetPoint"/>
              </mxGeometry>
            </mxCell>
            <mxCell id="read_upper_threshold_status-label"
                    parent="2"
                    value="read_upper_threshold_status"
                    vertex="1"
                    style="text;html=1;align=right;verticalAlign=middle;whiteSpace=wrap;rounded=0;fontSize=6;fontStyle=0;fontColor=black;connectable=0;">
              <mxGeometry
                x      = "15"
                y      = "190"
                width  = "180"
                height = "0"
                as     = "geometry"/>
            </mxCell>
            <mxCell id     = "read_upper_threshold_status-arrow"
                    parent = "2"
                    value  = ""
                    edge   = "1"
                    style  = "html=1;rounded=1;strokeWidth=1;strokeColor=black;startFill=0;startSize=2;startArrow=none;endFill=1;endSize=2;endArrow=none;sourcePerimeterSpacing=0;">
              <mxGeometry width    = "50"
                          height   = "50"
                          relative = "1"
                          as       = "geometry">
                <mxPoint x  = "210"
                         y  = "190"
                         as = "sourcePoint"/>
                <mxPoint x  = "195"
                         y  = "190"
                         as = "targetPoint"/>
              </mxGeometry>
            </mxCell>
            <mxCell id="memory_write_clock-label"
                    parent="2"
                    value="memory_write_clock"
                    vertex="1"
                    style="text;html=1;align=right;verticalAlign=middle;whiteSpace=wrap;rounded=0;fontSize=6;fontStyle=0;fontColor=black;connectable=0;">
              <mxGeometry
                x      = "15"
                y      = "200"
                width  = "180"
                height = "0"
                as     = "geometry"/>
            </mxCell>
            <mxCell id     = "memory_write_clock-arrow"
                    parent = "2"
                    value  = ""
                    edge   = "1"
                    style  = "html=1;rounded=1;strokeWidth=1;strokeColor=black;startFill=0;startSize=2;startArrow=none;endFill=1;endSize=2;endArrow=none;sourcePerimeterSpacing=0;">
              <mxGeometry width    = "50"
                          height   = "50"
                          relative = "1"
                          as       = "geometry">
                <mxPoint x  = "210"
                         y  = "200"
                         as = "sourcePoint"/>
                <mxPoint x  = "195"
                         y  = "200"
                         as = "targetPoint"/>
              </mxGeometry>
            </mxCell>
            <mxCell id="memory_write_enable-label"
                    parent="2"
                    value="memory_write_enable"
                    vertex="1"
                    style="text;html=1;align=right;verticalAlign=middle;whiteSpace=wrap;rounded=0;fontSize=6;fontStyle=0;fontColor=black;connectable=0;">
              <mxGeometry
                x      = "15"
                y      = "210"
                width  = "180"
                height = "0"
                as     = "geometry"/>
            </mxCell>
            <mxCell id     = "memory_write_enable-arrow"
                    parent = "2"
                    value  = ""
                    edge   = "1"
                    style  = "html=1;rounded=1;strokeWidth=1;strokeColor=black;startFill=0;startSize=2;startArrow=none;endFill=1;endSize=2;endArrow=none;sourcePerimeterSpacing=0;">
              <mxGeometry width    = "50"
                          height   = "50"
                          relative = "1"
                          as       = "geometry">
                <mxPoint x  = "210"
                         y  = "210"
                         as = "sourcePoint"/>
                <mxPoint x  = "195"
                         y  = "210"
                         as = "targetPoint"/>
              </mxGeometry>
            </mxCell>
            <mxCell id="memory_write_address-label"
                    parent="2"
                    value="memory_write_address"
                    vertex="1"
                    style="text;html=1;align=right;verticalAlign=middle;whiteSpace=wrap;rounded=0;fontSize=6;fontStyle=0;fontColor=black;connectable=0;">
              <mxGeometry
                x      = "15"
                y      = "220"
                width  = "180"
                height = "0"
                as     = "geometry"/>
            </mxCell>
            <mxCell id     = "memory_write_address-arrow"
                    parent = "2"
                    value  = ""
                    edge   = "1"
                    style  = "html=1;rounded=1;strokeWidth=1;strokeColor=black;startFill=0;startSize=2;startArrow=dash;endFill=1;endSize=2;endArrow=none;sourcePerimeterSpacing=0;">
              <mxGeometry width    = "50"
                          height   = "50"
                          relative = "1"
                          as       = "geometry">
                <mxPoint x  = "210"
                         y  = "220"
                         as = "sourcePoint"/>
                <mxPoint x  = "195"
                         y  = "220"
                         as = "targetPoint"/>
              </mxGeometry>
            </mxCell>
            <mxCell id="memory_write_data-label"
                    parent="2"
                    value="memory_write_data"
                    vertex="1"
                    style="text;html=1;align=right;verticalAlign=middle;whiteSpace=wrap;rounded=0;fontSize=6;fontStyle=0;fontColor=black;connectable=0;">
              <mxGeometry
                x      = "15"
                y      = "230"
                width  = "180"
                height = "0"
                as     = "geometry"/>
            </mxCell>
            <mxCell id     = "memory_write_data-arrow"
                    parent = "2"
                    value  = ""
                    edge   = "1"
                    style  = "html=1;rounded=1;strokeWidth=1;strokeColor=black;startFill=0;startSize=2;startArrow=dash;endFill=1;endSize=2;endArrow=none;sourcePerimeterSpacing=0;">
              <mxGeometry width    = "50"
                          height   = "50"
                          relative = "1"
                          as       = "geometry">
                <mxPoint x  = "210"
                         y  = "230"
                         as = "sourcePoint"/>
                <mxPoint x  = "195"
                         y  = "230"
                         as = "targetPoint"/>
              </mxGeometry>
            </mxCell>
            <mxCell id="memory_read_clock-label"
                    parent="2"
                    value="memory_read_clock"
                    vertex="1"
                    style="text;html=1;align=right;verticalAlign=middle;whiteSpace=wrap;rounded=0;fontSize=6;fontStyle=0;fontColor=black;connectable=0;">
              <mxGeometry
                x      = "15"
                y      = "240"
                width  = "180"
                height = "0"
                as     = "geometry"/>
            </mxCell>
            <mxCell id     = "memory_read_clock-arrow"
                    parent = "2"
                    value  = ""
                    edge   = "1"
                    style  = "html=1;rounded=1;strokeWidth=1;strokeColor=black;startFill=0;startSize=2;startArrow=none;endFill=1;endSize=2;endArrow=none;sourcePerimeterSpacing=0;">
              <mxGeometry width    = "50"
                          height   = "50"
                          relative = "1"
                          as       = "geometry">
                <mxPoint x  = "210"
                         y  = "240"
                         as = "sourcePoint"/>
                <mxPoint x  = "195"
                         y  = "240"
                         as = "targetPoint"/>
              </mxGeometry>
            </mxCell>
            <mxCell id="memory_read_enable-label"
                    parent="2"
                    value="memory_read_enable"
                    vertex="1"
                    style="text;html=1;align=right;verticalAlign=middle;whiteSpace=wrap;rounded=0;fontSize=6;fontStyle=0;fontColor=black;connectable=0;">
              <mxGeometry
                x      = "15"
                y      = "250"
                width  = "180"
                height = "0"
                as     = "geometry"/>
            </mxCell>
            <mxCell id     = "memory_read_enable-arrow"
                    parent = "2"
                    value  = ""
                    edge   = "1"
                    style  = "html=1;rounded=1;strokeWidth=1;strokeColor=black;startFill=0;startSize=2;startArrow=none;endFill=1;endSize=2;endArrow=none;sourcePerimeterSpacing=0;">
              <mxGeometry width    = "50"
                          height   = "50"
                          relative = "1"
                          as       = "geometry">
                <mxPoint x  = "210"
                         y  = "250"
                         as = "sourcePoint"/>
                <mxPoint x  = "195"
                         y  = "250"
                         as = "targetPoint"/>
              </mxGeometry>
            </mxCell>
            <mxCell id="memory_read_address-label"
                    parent="2"
                    value="memory_read_address"
                    vertex="1"
                    style="text;html=1;align=right;verticalAlign=middle;whiteSpace=wrap;rounded=0;fontSize=6;fontStyle=0;fontColor=black;connectable=0;">
              <mxGeometry
                x      = "15"
                y      = "260"
                width  = "180"
                height = "0"
                as     = "geometry"/>
            </mxCell>
            <mxCell id     = "memory_read_address-arrow"
                    parent = "2"
                    value  = ""
                    edge   = "1"
                    style  = "html=1;rounded=1;strokeWidth=1;strokeColor=black;startFill=0;startSize=2;startArrow=dash;endFill=1;endSize=2;endArrow=none;sourcePerimeterSpacing=0;">
              <mxGeometry width    = "50"
                          height   = "50"
                          relative = "1"
                          as       = "geometry">
                <mxPoint x  = "210"
                         y  = "260"
                         as = "sourcePoint"/>
                <mxPoint x  = "195"
                         y  = "260"
                         as = "targetPoint"/>
              </mxGeometry>
            </mxCell>
            <mxCell id="memory_read_data-label"
                    parent="2"
                    value="memory_read_data"
                    vertex="1"
                    style="text;html=1;align=right;verticalAlign=middle;whiteSpace=wrap;rounded=0;fontSize=6;fontStyle=0;fontColor=black;connectable=0;">
              <mxGeometry
                x      = "15"
                y      = "270"
                width  = "180"
                height = "0"
                as     = "geometry"/>
            </mxCell>
            <mxCell id     = "memory_read_data-arrow"
                    parent = "2"
                    value  = ""
                    edge   = "1"
                    style  = "html=1;rounded=1;strokeWidth=1;strokeColor=black;startFill=0;startSize=2;startArrow=dash;endFill=1;endSize=2;endArrow=blockThin;sourcePerimeterSpacing=0;">
              <mxGeometry width    = "50"
                          height   = "50"
                          relative = "1"
                          as       = "geometry">
                <mxPoint x  = "210"
                         y  = "270"
                         as = "sourcePoint"/>
                <mxPoint x  = "195"
                         y  = "270"
                         as = "targetPoint"/>
              </mxGeometry>
            </mxCell>
      </root>
    </mxGraphModel>
  </diagram>
</mxfile>